<?xml version="1.0" encoding="UTF-8"?>
<svg id="Capa_1" xmlns="http://www.w3.org/2000/svg" version="1.1" viewBox="0 0 1024 1024">
  <!-- Generator: Adobe Illustrator 29.5.0, SVG Export Plug-In . SVG Version: 2.1.0 Build 137)  -->
  <defs>
    <style>
      .st0 {
        fill: #1d1d1b;
      }
    </style>
  </defs>
  <path class="st0" d="M7.8,1024V0h527.8c97.9,0,172.7,8.4,224.4,25.1,51.7,16.8,93.4,47.8,125.1,93.2s47.6,100.6,47.6,165.7-12.1,105.8-36.4,146.9c-24.3,41.2-57.6,74.6-100.1,100.2-27.1,16.3-64.2,29.8-111.3,40.5,37.6,12.7,65,25.3,82.1,38,11.6,8.4,28.4,26.5,50.5,54.1,22,27.6,36.8,49,44.2,63.9l154.6,296.3h-357.2l-169.7-313.3c-21.5-40.6-40.6-66.9-57.4-79-22.9-15.9-48.8-23.8-77.7-23.8h-28v416.1H7.8ZM326.1,414.8h133.3c14.4,0,42.4-4.7,83.8-14,20.9-4.2,38-14.9,51.3-32.2,13.2-17.3,19.9-37.1,19.9-59.5,0-33.1-10.5-58.6-31.4-76.3-21-17.7-60.3-26.6-118-26.6h-138.9v208.7Z"/>
</svg>